<mxfile>
    <diagram id="4sK-PKmjDqS8IKaFj2jv" name="Page-1">
        <mxGraphModel dx="1220" dy="488" grid="0" gridSize="10" guides="1" tooltips="1" connect="1" arrows="1" fold="1" page="0" pageScale="1" pageWidth="827" pageHeight="1169" math="0" shadow="0">
            <root>
                <mxCell id="0"/>
                <mxCell id="1" parent="0"/>
                <mxCell id="yFiI01TJS1DYjCSwMzdh-75" style="edgeStyle=orthogonalEdgeStyle;rounded=0;orthogonalLoop=1;jettySize=auto;html=1;entryX=0;entryY=0.5;entryDx=0;entryDy=0;endArrow=none;endFill=0;" parent="1" source="awV-GZD2r2zzS3tEyDBp-6" target="awV-GZD2r2zzS3tEyDBp-64" edge="1">
                    <mxGeometry relative="1" as="geometry"/>
                </mxCell>
                <mxCell id="yFiI01TJS1DYjCSwMzdh-76" style="edgeStyle=orthogonalEdgeStyle;rounded=0;orthogonalLoop=1;jettySize=auto;html=1;entryX=0.5;entryY=0;entryDx=0;entryDy=0;endArrow=none;endFill=0;" parent="1" source="awV-GZD2r2zzS3tEyDBp-6" target="awV-GZD2r2zzS3tEyDBp-13" edge="1">
                    <mxGeometry relative="1" as="geometry"/>
                </mxCell>
                <mxCell id="awV-GZD2r2zzS3tEyDBp-6" value="Suivre" style="swimlane;childLayout=stackLayout;horizontal=1;startSize=30;horizontalStack=0;fillColor=#008cff;fontColor=#FFFFFF;rounded=1;fontSize=14;fontStyle=0;strokeWidth=2;resizeParent=0;resizeLast=1;shadow=0;dashed=0;align=center;comic=0;arcSize=50;" parent="1" vertex="1">
                    <mxGeometry x="1221.88" y="770" width="121.25" height="45" as="geometry"/>
                </mxCell>
                <mxCell id="awV-GZD2r2zzS3tEyDBp-10" value="Etablir" style="swimlane;childLayout=stackLayout;horizontal=1;startSize=30;horizontalStack=0;fillColor=#008cff;fontColor=#FFFFFF;rounded=1;fontSize=14;fontStyle=0;strokeWidth=2;resizeParent=0;resizeLast=1;shadow=0;dashed=0;align=center;comic=0;arcSize=50;" parent="1" vertex="1">
                    <mxGeometry x="976.8700000000001" y="334.5" width="121.25" height="45" as="geometry"/>
                </mxCell>
                <mxCell id="awV-GZD2r2zzS3tEyDBp-11" value="1-N" style="text;html=1;align=center;verticalAlign=middle;resizable=0;points=[];autosize=1;" parent="1" vertex="1">
                    <mxGeometry x="1140" y="140.5" width="30" height="20" as="geometry"/>
                </mxCell>
                <mxCell id="awV-GZD2r2zzS3tEyDBp-12" value="1-1" style="text;html=1;align=center;verticalAlign=middle;resizable=0;points=[];autosize=1;" parent="1" vertex="1">
                    <mxGeometry x="1110" y="610" width="30" height="20" as="geometry"/>
                </mxCell>
                <mxCell id="awV-GZD2r2zzS3tEyDBp-13" value="Medecin" style="swimlane;fontStyle=0;childLayout=stackLayout;horizontal=1;startSize=26;horizontalStack=0;resizeParent=1;resizeParentMax=0;resizeLast=0;collapsible=1;marginBottom=0;swimlaneFillColor=none;align=center;fontSize=14;shadow=0;comic=0;fillColor=none;" parent="1" vertex="1">
                    <mxGeometry x="1220.13" y="930" width="125" height="260" as="geometry"/>
                </mxCell>
                <mxCell id="awV-GZD2r2zzS3tEyDBp-14" value="Id" style="text;strokeColor=none;fillColor=none;spacingLeft=4;spacingRight=4;overflow=hidden;rotatable=0;points=[[0,0.5],[1,0.5]];portConstraint=eastwest;fontSize=12;fontStyle=4" parent="awV-GZD2r2zzS3tEyDBp-13" vertex="1">
                    <mxGeometry y="26" width="125" height="26" as="geometry"/>
                </mxCell>
                <mxCell id="83" value="NumInami" style="text;strokeColor=none;fillColor=none;spacingLeft=4;spacingRight=4;overflow=hidden;rotatable=0;points=[[0,0.5],[1,0.5]];portConstraint=eastwest;fontSize=12;" parent="awV-GZD2r2zzS3tEyDBp-13" vertex="1">
                    <mxGeometry y="52" width="125" height="26" as="geometry"/>
                </mxCell>
                <mxCell id="awV-GZD2r2zzS3tEyDBp-15" value="Nom" style="text;strokeColor=none;fillColor=none;spacingLeft=4;spacingRight=4;overflow=hidden;rotatable=0;points=[[0,0.5],[1,0.5]];portConstraint=eastwest;fontSize=12;" parent="awV-GZD2r2zzS3tEyDBp-13" vertex="1">
                    <mxGeometry y="78" width="125" height="26" as="geometry"/>
                </mxCell>
                <mxCell id="awV-GZD2r2zzS3tEyDBp-16" value="Prenom" style="text;strokeColor=none;fillColor=none;spacingLeft=4;spacingRight=4;overflow=hidden;rotatable=0;points=[[0,0.5],[1,0.5]];portConstraint=eastwest;fontSize=12;" parent="awV-GZD2r2zzS3tEyDBp-13" vertex="1">
                    <mxGeometry y="104" width="125" height="26" as="geometry"/>
                </mxCell>
                <mxCell id="awV-GZD2r2zzS3tEyDBp-17" value="DateNaissance" style="text;strokeColor=none;fillColor=none;spacingLeft=4;spacingRight=4;overflow=hidden;rotatable=0;points=[[0,0.5],[1,0.5]];portConstraint=eastwest;fontSize=12;" parent="awV-GZD2r2zzS3tEyDBp-13" vertex="1">
                    <mxGeometry y="130" width="125" height="26" as="geometry"/>
                </mxCell>
                <mxCell id="awV-GZD2r2zzS3tEyDBp-18" value="Adresse" style="text;strokeColor=none;fillColor=none;spacingLeft=4;spacingRight=4;overflow=hidden;rotatable=0;points=[[0,0.5],[1,0.5]];portConstraint=eastwest;fontSize=12;" parent="awV-GZD2r2zzS3tEyDBp-13" vertex="1">
                    <mxGeometry y="156" width="125" height="26" as="geometry"/>
                </mxCell>
                <mxCell id="awV-GZD2r2zzS3tEyDBp-19" value="TelephonePerso" style="text;strokeColor=none;fillColor=none;spacingLeft=4;spacingRight=4;overflow=hidden;rotatable=0;points=[[0,0.5],[1,0.5]];portConstraint=eastwest;fontSize=12;" parent="awV-GZD2r2zzS3tEyDBp-13" vertex="1">
                    <mxGeometry y="182" width="125" height="26" as="geometry"/>
                </mxCell>
                <mxCell id="awV-GZD2r2zzS3tEyDBp-20" value="TelephoneCabinet" style="text;strokeColor=none;fillColor=none;spacingLeft=4;spacingRight=4;overflow=hidden;rotatable=0;points=[[0,0.5],[1,0.5]];portConstraint=eastwest;fontSize=12;" parent="awV-GZD2r2zzS3tEyDBp-13" vertex="1">
                    <mxGeometry y="208" width="125" height="26" as="geometry"/>
                </mxCell>
                <mxCell id="awV-GZD2r2zzS3tEyDBp-21" value="Actif" style="text;strokeColor=none;fillColor=none;spacingLeft=4;spacingRight=4;overflow=hidden;rotatable=0;points=[[0,0.5],[1,0.5]];portConstraint=eastwest;fontSize=12;" parent="awV-GZD2r2zzS3tEyDBp-13" vertex="1">
                    <mxGeometry y="234" width="125" height="26" as="geometry"/>
                </mxCell>
                <mxCell id="awV-GZD2r2zzS3tEyDBp-22" value="1-N" style="text;html=1;align=center;verticalAlign=middle;resizable=0;points=[];autosize=1;" parent="1" vertex="1">
                    <mxGeometry x="1290" y="900" width="30" height="20" as="geometry"/>
                </mxCell>
                <mxCell id="awV-GZD2r2zzS3tEyDBp-23" value="1-1" style="text;html=1;align=center;verticalAlign=middle;resizable=0;points=[];autosize=1;" parent="1" vertex="1">
                    <mxGeometry x="1400" y="662.5" width="30" height="20" as="geometry"/>
                </mxCell>
                <mxCell id="yFiI01TJS1DYjCSwMzdh-47" style="edgeStyle=orthogonalEdgeStyle;rounded=0;orthogonalLoop=1;jettySize=auto;html=1;entryX=0.5;entryY=0;entryDx=0;entryDy=0;endArrow=none;endFill=0;" parent="1" source="awV-GZD2r2zzS3tEyDBp-24" target="awV-GZD2r2zzS3tEyDBp-59" edge="1">
                    <mxGeometry relative="1" as="geometry"/>
                </mxCell>
                <mxCell id="awV-GZD2r2zzS3tEyDBp-24" value="Inscrire" style="swimlane;childLayout=stackLayout;horizontal=1;startSize=30;horizontalStack=0;fillColor=#008cff;fontColor=#FFFFFF;rounded=1;fontSize=14;fontStyle=0;strokeWidth=2;resizeParent=0;resizeLast=1;shadow=0;dashed=0;align=center;comic=0;arcSize=50;" parent="1" vertex="1">
                    <mxGeometry x="1427.5" y="120.5" width="150" height="100" as="geometry"/>
                </mxCell>
                <mxCell id="awV-GZD2r2zzS3tEyDBp-68" value="DateDebutInsciption" style="text;strokeColor=none;fillColor=none;spacingLeft=4;spacingRight=4;overflow=hidden;rotatable=0;points=[[0,0.5],[1,0.5]];portConstraint=eastwest;fontSize=12;align=center;" parent="awV-GZD2r2zzS3tEyDBp-24" vertex="1">
                    <mxGeometry y="30" width="150" height="30" as="geometry"/>
                </mxCell>
                <mxCell id="UkAMx5j0rpMIQZxr48Fk-3" value="DateFinInscription" style="text;strokeColor=none;fillColor=none;spacingLeft=4;spacingRight=4;overflow=hidden;rotatable=0;points=[[0,0.5],[1,0.5]];portConstraint=eastwest;fontSize=12;align=center;" parent="awV-GZD2r2zzS3tEyDBp-24" vertex="1">
                    <mxGeometry y="60" width="150" height="40" as="geometry"/>
                </mxCell>
                <mxCell id="yFiI01TJS1DYjCSwMzdh-51" style="edgeStyle=orthogonalEdgeStyle;rounded=0;orthogonalLoop=1;jettySize=auto;html=1;entryX=0.5;entryY=0;entryDx=0;entryDy=0;endArrow=none;endFill=0;" parent="1" source="awV-GZD2r2zzS3tEyDBp-30" target="awV-GZD2r2zzS3tEyDBp-116" edge="1">
                    <mxGeometry relative="1" as="geometry"/>
                </mxCell>
                <mxCell id="awV-GZD2r2zzS3tEyDBp-30" value="ParaMedical" style="swimlane;fontStyle=0;childLayout=stackLayout;horizontal=1;startSize=26;horizontalStack=0;resizeParent=1;resizeParentMax=0;resizeLast=0;collapsible=1;marginBottom=0;swimlaneFillColor=none;align=center;fontSize=14;shadow=0;comic=0;fillColor=none;" parent="1" vertex="1">
                    <mxGeometry x="190" y="843.25" width="185" height="52" as="geometry"/>
                </mxCell>
                <mxCell id="UkAMx5j0rpMIQZxr48Fk-7" value="NumInami&#10;" style="text;strokeColor=none;fillColor=none;spacingLeft=4;spacingRight=4;overflow=hidden;rotatable=0;points=[[0,0.5],[1,0.5]];portConstraint=eastwest;fontSize=12;" parent="awV-GZD2r2zzS3tEyDBp-30" vertex="1">
                    <mxGeometry y="26" width="185" height="26" as="geometry"/>
                </mxCell>
                <mxCell id="awV-GZD2r2zzS3tEyDBp-33" value="Etablir" style="swimlane;childLayout=stackLayout;horizontal=1;startSize=30;horizontalStack=0;fillColor=#008cff;fontColor=#FFFFFF;rounded=1;fontSize=14;fontStyle=0;strokeWidth=2;resizeParent=0;resizeLast=1;shadow=0;dashed=0;align=center;comic=0;arcSize=22;" parent="1" vertex="1">
                    <mxGeometry x="2094" y="1599.75" width="100" height="45" as="geometry"/>
                </mxCell>
                <mxCell id="awV-GZD2r2zzS3tEyDBp-35" value="1-1" style="text;html=1;align=center;verticalAlign=middle;resizable=0;points=[];autosize=1;" parent="1" vertex="1">
                    <mxGeometry x="1506" y="513" width="30" height="20" as="geometry"/>
                </mxCell>
                <mxCell id="yFiI01TJS1DYjCSwMzdh-10" style="edgeStyle=orthogonalEdgeStyle;rounded=0;orthogonalLoop=1;jettySize=auto;html=1;entryX=1;entryY=1;entryDx=0;entryDy=0;entryPerimeter=0;endArrow=none;endFill=0;" parent="1" source="awV-GZD2r2zzS3tEyDBp-37" target="awV-GZD2r2zzS3tEyDBp-56" edge="1">
                    <mxGeometry relative="1" as="geometry"/>
                </mxCell>
                <mxCell id="yFiI01TJS1DYjCSwMzdh-31" style="edgeStyle=orthogonalEdgeStyle;rounded=0;orthogonalLoop=1;jettySize=auto;html=1;entryX=0;entryY=0.5;entryDx=0;entryDy=0;endArrow=none;endFill=0;" parent="1" source="awV-GZD2r2zzS3tEyDBp-37" target="awV-GZD2r2zzS3tEyDBp-68" edge="1">
                    <mxGeometry relative="1" as="geometry"/>
                </mxCell>
                <mxCell id="yFiI01TJS1DYjCSwMzdh-53" style="edgeStyle=orthogonalEdgeStyle;rounded=0;orthogonalLoop=1;jettySize=auto;html=1;entryX=0.5;entryY=0;entryDx=0;entryDy=0;endArrow=none;endFill=0;" parent="1" source="awV-GZD2r2zzS3tEyDBp-37" target="awV-GZD2r2zzS3tEyDBp-10" edge="1">
                    <mxGeometry relative="1" as="geometry"/>
                </mxCell>
                <mxCell id="awV-GZD2r2zzS3tEyDBp-37" value="AssistanteSociale" style="swimlane;fontStyle=0;childLayout=stackLayout;horizontal=1;startSize=26;horizontalStack=0;resizeParent=1;resizeParentMax=0;resizeLast=0;collapsible=1;marginBottom=0;swimlaneFillColor=none;align=center;fontSize=14;shadow=0;comic=0;fillColor=none;" parent="1" vertex="1">
                    <mxGeometry x="945" y="139.5" width="185" height="52" as="geometry"/>
                </mxCell>
                <mxCell id="89" style="edgeStyle=orthogonalEdgeStyle;rounded=0;orthogonalLoop=1;jettySize=auto;html=1;entryX=0.5;entryY=0;entryDx=0;entryDy=0;endArrow=none;endFill=0;" parent="1" source="awV-GZD2r2zzS3tEyDBp-41" target="87" edge="1">
                    <mxGeometry relative="1" as="geometry"/>
                </mxCell>
                <mxCell id="awV-GZD2r2zzS3tEyDBp-41" value="Utilisateur" style="swimlane;fontStyle=0;childLayout=stackLayout;horizontal=1;startSize=26;horizontalStack=0;resizeParent=1;resizeParentMax=0;resizeLast=0;collapsible=1;marginBottom=0;swimlaneFillColor=none;align=center;fontSize=14;shadow=0;comic=0;fillColor=none;" parent="1" vertex="1">
                    <mxGeometry x="-390" y="475.5" width="195" height="390" as="geometry"/>
                </mxCell>
                <mxCell id="awV-GZD2r2zzS3tEyDBp-42" value="Id" style="text;strokeColor=none;fillColor=none;spacingLeft=4;spacingRight=4;overflow=hidden;rotatable=0;points=[[0,0.5],[1,0.5]];portConstraint=eastwest;fontSize=12;fontStyle=4" parent="awV-GZD2r2zzS3tEyDBp-41" vertex="1">
                    <mxGeometry y="26" width="195" height="26" as="geometry"/>
                </mxCell>
                <mxCell id="awV-GZD2r2zzS3tEyDBp-47" value="Nom" style="text;strokeColor=none;fillColor=none;spacingLeft=4;spacingRight=4;overflow=hidden;rotatable=0;points=[[0,0.5],[1,0.5]];portConstraint=eastwest;fontSize=12;" parent="awV-GZD2r2zzS3tEyDBp-41" vertex="1">
                    <mxGeometry y="52" width="195" height="26" as="geometry"/>
                </mxCell>
                <mxCell id="awV-GZD2r2zzS3tEyDBp-46" value="Prenom" style="text;strokeColor=none;fillColor=none;spacingLeft=4;spacingRight=4;overflow=hidden;rotatable=0;points=[[0,0.5],[1,0.5]];portConstraint=eastwest;fontSize=12;" parent="awV-GZD2r2zzS3tEyDBp-41" vertex="1">
                    <mxGeometry y="78" width="195" height="26" as="geometry"/>
                </mxCell>
                <mxCell id="UkAMx5j0rpMIQZxr48Fk-1" value="Adresse" style="text;strokeColor=none;fillColor=none;spacingLeft=4;spacingRight=4;overflow=hidden;rotatable=0;points=[[0,0.5],[1,0.5]];portConstraint=eastwest;fontSize=12;" parent="awV-GZD2r2zzS3tEyDBp-41" vertex="1">
                    <mxGeometry y="104" width="195" height="26" as="geometry"/>
                </mxCell>
                <mxCell id="awV-GZD2r2zzS3tEyDBp-48" value="DateNaissance" style="text;strokeColor=none;fillColor=none;spacingLeft=4;spacingRight=4;overflow=hidden;rotatable=0;points=[[0,0.5],[1,0.5]];portConstraint=eastwest;fontSize=12;" parent="awV-GZD2r2zzS3tEyDBp-41" vertex="1">
                    <mxGeometry y="130" width="195" height="26" as="geometry"/>
                </mxCell>
                <mxCell id="awV-GZD2r2zzS3tEyDBp-49" value="RegistreNational" style="text;strokeColor=none;fillColor=none;spacingLeft=4;spacingRight=4;overflow=hidden;rotatable=0;points=[[0,0.5],[1,0.5]];portConstraint=eastwest;fontSize=12;" parent="awV-GZD2r2zzS3tEyDBp-41" vertex="1">
                    <mxGeometry y="156" width="195" height="26" as="geometry"/>
                </mxCell>
                <mxCell id="awV-GZD2r2zzS3tEyDBp-51" value="Sexe&#10;" style="text;strokeColor=none;fillColor=none;spacingLeft=4;spacingRight=4;overflow=hidden;rotatable=0;points=[[0,0.5],[1,0.5]];portConstraint=eastwest;fontSize=12;" parent="awV-GZD2r2zzS3tEyDBp-41" vertex="1">
                    <mxGeometry y="182" width="195" height="26" as="geometry"/>
                </mxCell>
                <mxCell id="awV-GZD2r2zzS3tEyDBp-52" value="DateDerniereModif" style="text;strokeColor=none;fillColor=none;spacingLeft=4;spacingRight=4;overflow=hidden;rotatable=0;points=[[0,0.5],[1,0.5]];portConstraint=eastwest;fontSize=12;" parent="awV-GZD2r2zzS3tEyDBp-41" vertex="1">
                    <mxGeometry y="208" width="195" height="26" as="geometry"/>
                </mxCell>
                <mxCell id="awV-GZD2r2zzS3tEyDBp-53" value="DateDebutContrat" style="text;strokeColor=none;fillColor=none;spacingLeft=4;spacingRight=4;overflow=hidden;rotatable=0;points=[[0,0.5],[1,0.5]];portConstraint=eastwest;fontSize=12;" parent="awV-GZD2r2zzS3tEyDBp-41" vertex="1">
                    <mxGeometry y="234" width="195" height="26" as="geometry"/>
                </mxCell>
                <mxCell id="awV-GZD2r2zzS3tEyDBp-50" value="Telephone" style="text;strokeColor=none;fillColor=none;spacingLeft=4;spacingRight=4;overflow=hidden;rotatable=0;points=[[0,0.5],[1,0.5]];portConstraint=eastwest;fontSize=12;" parent="awV-GZD2r2zzS3tEyDBp-41" vertex="1">
                    <mxGeometry y="260" width="195" height="26" as="geometry"/>
                </mxCell>
                <mxCell id="awV-GZD2r2zzS3tEyDBp-43" value="Mail" style="text;strokeColor=none;fillColor=none;spacingLeft=4;spacingRight=4;overflow=hidden;rotatable=0;points=[[0,0.5],[1,0.5]];portConstraint=eastwest;fontSize=12;" parent="awV-GZD2r2zzS3tEyDBp-41" vertex="1">
                    <mxGeometry y="286" width="195" height="26" as="geometry"/>
                </mxCell>
                <mxCell id="awV-GZD2r2zzS3tEyDBp-44" value="MotDePasse" style="text;strokeColor=none;fillColor=none;spacingLeft=4;spacingRight=4;overflow=hidden;rotatable=0;points=[[0,0.5],[1,0.5]];portConstraint=eastwest;fontSize=12;" parent="awV-GZD2r2zzS3tEyDBp-41" vertex="1">
                    <mxGeometry y="312" width="195" height="26" as="geometry"/>
                </mxCell>
                <mxCell id="awV-GZD2r2zzS3tEyDBp-45" value="Salage" style="text;strokeColor=none;fillColor=none;spacingLeft=4;spacingRight=4;overflow=hidden;rotatable=0;points=[[0,0.5],[1,0.5]];portConstraint=eastwest;fontSize=12;" parent="awV-GZD2r2zzS3tEyDBp-41" vertex="1">
                    <mxGeometry y="338" width="195" height="26" as="geometry"/>
                </mxCell>
                <mxCell id="awV-GZD2r2zzS3tEyDBp-55" value="Actif" style="text;strokeColor=none;fillColor=none;spacingLeft=4;spacingRight=4;overflow=hidden;rotatable=0;points=[[0,0.5],[1,0.5]];portConstraint=eastwest;fontSize=12;" parent="awV-GZD2r2zzS3tEyDBp-41" vertex="1">
                    <mxGeometry y="364" width="195" height="26" as="geometry"/>
                </mxCell>
                <mxCell id="yFiI01TJS1DYjCSwMzdh-9" style="edgeStyle=orthogonalEdgeStyle;rounded=0;orthogonalLoop=1;jettySize=auto;html=1;entryX=1;entryY=0.5;entryDx=0;entryDy=0;endArrow=none;endFill=0;" parent="1" source="awV-GZD2r2zzS3tEyDBp-56" target="awV-GZD2r2zzS3tEyDBp-51" edge="1">
                    <mxGeometry relative="1" as="geometry"/>
                </mxCell>
                <mxCell id="awV-GZD2r2zzS3tEyDBp-56" value="" style="verticalLabelPosition=bottom;verticalAlign=top;html=1;shape=mxgraph.basic.acute_triangle;dx=0.5;rotation=-90;" parent="1" vertex="1">
                    <mxGeometry x="-150" y="651.25" width="40" height="38.5" as="geometry"/>
                </mxCell>
                <mxCell id="yFiI01TJS1DYjCSwMzdh-49" style="edgeStyle=orthogonalEdgeStyle;rounded=0;orthogonalLoop=1;jettySize=auto;html=1;entryX=0.5;entryY=0;entryDx=0;entryDy=0;endArrow=none;endFill=0;" parent="1" source="awV-GZD2r2zzS3tEyDBp-59" target="yFiI01TJS1DYjCSwMzdh-19" edge="1">
                    <mxGeometry relative="1" as="geometry"/>
                </mxCell>
                <mxCell id="awV-GZD2r2zzS3tEyDBp-59" value="Eleve" style="swimlane;fontStyle=0;childLayout=stackLayout;horizontal=1;startSize=26;horizontalStack=0;resizeParent=1;resizeParentMax=0;resizeLast=0;collapsible=1;marginBottom=0;swimlaneFillColor=none;align=center;fontSize=14;shadow=0;comic=0;fillColor=none;" parent="1" vertex="1">
                    <mxGeometry x="1440" y="542.5" width="125" height="260" as="geometry"/>
                </mxCell>
                <mxCell id="awV-GZD2r2zzS3tEyDBp-60" value="Id" style="text;strokeColor=none;fillColor=none;spacingLeft=4;spacingRight=4;overflow=hidden;rotatable=0;points=[[0,0.5],[1,0.5]];portConstraint=eastwest;fontSize=12;fontStyle=4" parent="awV-GZD2r2zzS3tEyDBp-59" vertex="1">
                    <mxGeometry y="26" width="125" height="26" as="geometry"/>
                </mxCell>
                <mxCell id="awV-GZD2r2zzS3tEyDBp-61" value="Nom" style="text;strokeColor=none;fillColor=none;spacingLeft=4;spacingRight=4;overflow=hidden;rotatable=0;points=[[0,0.5],[1,0.5]];portConstraint=eastwest;fontSize=12;" parent="awV-GZD2r2zzS3tEyDBp-59" vertex="1">
                    <mxGeometry y="52" width="125" height="26" as="geometry"/>
                </mxCell>
                <mxCell id="awV-GZD2r2zzS3tEyDBp-62" value="Prenom" style="text;strokeColor=none;fillColor=none;spacingLeft=4;spacingRight=4;overflow=hidden;rotatable=0;points=[[0,0.5],[1,0.5]];portConstraint=eastwest;fontSize=12;" parent="awV-GZD2r2zzS3tEyDBp-59" vertex="1">
                    <mxGeometry y="78" width="125" height="26" as="geometry"/>
                </mxCell>
                <mxCell id="awV-GZD2r2zzS3tEyDBp-63" value="Adressse" style="text;strokeColor=none;fillColor=none;spacingLeft=4;spacingRight=4;overflow=hidden;rotatable=0;points=[[0,0.5],[1,0.5]];portConstraint=eastwest;fontSize=12;" parent="awV-GZD2r2zzS3tEyDBp-59" vertex="1">
                    <mxGeometry y="104" width="125" height="26" as="geometry"/>
                </mxCell>
                <mxCell id="awV-GZD2r2zzS3tEyDBp-64" value="DateNaissance" style="text;strokeColor=none;fillColor=none;spacingLeft=4;spacingRight=4;overflow=hidden;rotatable=0;points=[[0,0.5],[1,0.5]];portConstraint=eastwest;fontSize=12;" parent="awV-GZD2r2zzS3tEyDBp-59" vertex="1">
                    <mxGeometry y="130" width="125" height="26" as="geometry"/>
                </mxCell>
                <mxCell id="awV-GZD2r2zzS3tEyDBp-65" value="RegistreNational" style="text;strokeColor=none;fillColor=none;spacingLeft=4;spacingRight=4;overflow=hidden;rotatable=0;points=[[0,0.5],[1,0.5]];portConstraint=eastwest;fontSize=12;" parent="awV-GZD2r2zzS3tEyDBp-59" vertex="1">
                    <mxGeometry y="156" width="125" height="26" as="geometry"/>
                </mxCell>
                <mxCell id="awV-GZD2r2zzS3tEyDBp-66" value="Sexe&#10;" style="text;strokeColor=none;fillColor=none;spacingLeft=4;spacingRight=4;overflow=hidden;rotatable=0;points=[[0,0.5],[1,0.5]];portConstraint=eastwest;fontSize=12;" parent="awV-GZD2r2zzS3tEyDBp-59" vertex="1">
                    <mxGeometry y="182" width="125" height="26" as="geometry"/>
                </mxCell>
                <mxCell id="UkAMx5j0rpMIQZxr48Fk-2" value="DateDerniereModif" style="text;strokeColor=none;fillColor=none;spacingLeft=4;spacingRight=4;overflow=hidden;rotatable=0;points=[[0,0.5],[1,0.5]];portConstraint=eastwest;fontSize=12;" parent="awV-GZD2r2zzS3tEyDBp-59" vertex="1">
                    <mxGeometry y="208" width="125" height="26" as="geometry"/>
                </mxCell>
                <mxCell id="awV-GZD2r2zzS3tEyDBp-69" value="Actif" style="text;strokeColor=none;fillColor=none;spacingLeft=4;spacingRight=4;overflow=hidden;rotatable=0;points=[[0,0.5],[1,0.5]];portConstraint=eastwest;fontSize=12;" parent="awV-GZD2r2zzS3tEyDBp-59" vertex="1">
                    <mxGeometry y="234" width="125" height="26" as="geometry"/>
                </mxCell>
                <mxCell id="yFiI01TJS1DYjCSwMzdh-54" style="edgeStyle=orthogonalEdgeStyle;rounded=0;orthogonalLoop=1;jettySize=auto;html=1;entryX=0.5;entryY=1;entryDx=0;entryDy=0;endArrow=none;endFill=0;" parent="1" source="awV-GZD2r2zzS3tEyDBp-82" target="awV-GZD2r2zzS3tEyDBp-10" edge="1">
                    <mxGeometry relative="1" as="geometry"/>
                </mxCell>
                <mxCell id="yFiI01TJS1DYjCSwMzdh-56" style="edgeStyle=orthogonalEdgeStyle;rounded=0;orthogonalLoop=1;jettySize=auto;html=1;entryX=0.5;entryY=0;entryDx=0;entryDy=0;endArrow=none;endFill=0;" parent="1" source="awV-GZD2r2zzS3tEyDBp-82" target="yFiI01TJS1DYjCSwMzdh-52" edge="1">
                    <mxGeometry relative="1" as="geometry"/>
                </mxCell>
                <mxCell id="awV-GZD2r2zzS3tEyDBp-82" value="Traitement" style="swimlane;fontStyle=0;childLayout=stackLayout;horizontal=1;startSize=26;horizontalStack=0;resizeParent=1;resizeParentMax=0;resizeLast=0;collapsible=1;marginBottom=0;swimlaneFillColor=none;align=center;fontSize=14;shadow=0;comic=0;fillColor=none;" parent="1" vertex="1">
                    <mxGeometry x="975.87" y="517.5" width="125" height="260" as="geometry"/>
                </mxCell>
                <mxCell id="awV-GZD2r2zzS3tEyDBp-83" value="Id" style="text;strokeColor=none;fillColor=none;spacingLeft=4;spacingRight=4;overflow=hidden;rotatable=0;points=[[0,0.5],[1,0.5]];portConstraint=eastwest;fontSize=12;fontStyle=4" parent="awV-GZD2r2zzS3tEyDBp-82" vertex="1">
                    <mxGeometry y="26" width="125" height="26" as="geometry"/>
                </mxCell>
                <mxCell id="awV-GZD2r2zzS3tEyDBp-84" value="NomMedicament" style="text;strokeColor=none;fillColor=none;spacingLeft=4;spacingRight=4;overflow=hidden;rotatable=0;points=[[0,0.5],[1,0.5]];portConstraint=eastwest;fontSize=12;" parent="awV-GZD2r2zzS3tEyDBp-82" vertex="1">
                    <mxGeometry y="52" width="125" height="26" as="geometry"/>
                </mxCell>
                <mxCell id="awV-GZD2r2zzS3tEyDBp-85" value="Posologie" style="text;strokeColor=none;fillColor=none;spacingLeft=4;spacingRight=4;overflow=hidden;rotatable=0;points=[[0,0.5],[1,0.5]];portConstraint=eastwest;fontSize=12;" parent="awV-GZD2r2zzS3tEyDBp-82" vertex="1">
                    <mxGeometry y="78" width="125" height="26" as="geometry"/>
                </mxCell>
                <mxCell id="awV-GZD2r2zzS3tEyDBp-86" value="DateDebut" style="text;strokeColor=none;fillColor=none;spacingLeft=4;spacingRight=4;overflow=hidden;rotatable=0;points=[[0,0.5],[1,0.5]];portConstraint=eastwest;fontSize=12;" parent="awV-GZD2r2zzS3tEyDBp-82" vertex="1">
                    <mxGeometry y="104" width="125" height="26" as="geometry"/>
                </mxCell>
                <mxCell id="awV-GZD2r2zzS3tEyDBp-87" value="DateFin" style="text;strokeColor=none;fillColor=none;spacingLeft=4;spacingRight=4;overflow=hidden;rotatable=0;points=[[0,0.5],[1,0.5]];portConstraint=eastwest;fontSize=12;" parent="awV-GZD2r2zzS3tEyDBp-82" vertex="1">
                    <mxGeometry y="130" width="125" height="26" as="geometry"/>
                </mxCell>
                <mxCell id="awV-GZD2r2zzS3tEyDBp-88" value="NomCreateur" style="text;strokeColor=none;fillColor=none;spacingLeft=4;spacingRight=4;overflow=hidden;rotatable=0;points=[[0,0.5],[1,0.5]];portConstraint=eastwest;fontSize=12;" parent="awV-GZD2r2zzS3tEyDBp-82" vertex="1">
                    <mxGeometry y="156" width="125" height="26" as="geometry"/>
                </mxCell>
                <mxCell id="awV-GZD2r2zzS3tEyDBp-89" value="Objectif" style="text;strokeColor=none;fillColor=none;spacingLeft=4;spacingRight=4;overflow=hidden;rotatable=0;points=[[0,0.5],[1,0.5]];portConstraint=eastwest;fontSize=12;" parent="awV-GZD2r2zzS3tEyDBp-82" vertex="1">
                    <mxGeometry y="182" width="125" height="26" as="geometry"/>
                </mxCell>
                <mxCell id="BujevRqAmfyZwdnscf3T-8" value="Actif" style="text;strokeColor=none;fillColor=none;spacingLeft=4;spacingRight=4;overflow=hidden;rotatable=0;points=[[0,0.5],[1,0.5]];portConstraint=eastwest;fontSize=12;" parent="awV-GZD2r2zzS3tEyDBp-82" vertex="1">
                    <mxGeometry y="208" width="125" height="26" as="geometry"/>
                </mxCell>
                <mxCell id="awV-GZD2r2zzS3tEyDBp-90" value="TargetPieceJointe" style="text;strokeColor=none;fillColor=none;spacingLeft=4;spacingRight=4;overflow=hidden;rotatable=0;points=[[0,0.5],[1,0.5]];portConstraint=eastwest;fontSize=12;" parent="awV-GZD2r2zzS3tEyDBp-82" vertex="1">
                    <mxGeometry y="234" width="125" height="26" as="geometry"/>
                </mxCell>
                <mxCell id="yFiI01TJS1DYjCSwMzdh-33" style="edgeStyle=orthogonalEdgeStyle;rounded=0;orthogonalLoop=1;jettySize=auto;html=1;entryX=1;entryY=1;entryDx=0;entryDy=0;entryPerimeter=0;endArrow=none;endFill=0;" parent="1" source="awV-GZD2r2zzS3tEyDBp-93" target="yFiI01TJS1DYjCSwMzdh-32" edge="1">
                    <mxGeometry relative="1" as="geometry"/>
                </mxCell>
                <mxCell id="34" style="edgeStyle=orthogonalEdgeStyle;rounded=0;orthogonalLoop=1;jettySize=auto;html=1;exitX=0.75;exitY=0;exitDx=0;exitDy=0;entryX=0.5;entryY=0;entryDx=0;entryDy=0;endArrow=none;endFill=0;" parent="1" source="awV-GZD2r2zzS3tEyDBp-93" target="yFiI01TJS1DYjCSwMzdh-64" edge="1">
                    <mxGeometry relative="1" as="geometry"/>
                </mxCell>
                <mxCell id="37" style="edgeStyle=orthogonalEdgeStyle;rounded=0;orthogonalLoop=1;jettySize=auto;html=1;entryX=0.5;entryY=0;entryDx=0;entryDy=0;endArrow=none;endFill=0;exitX=0.75;exitY=1;exitDx=0;exitDy=0;" parent="1" source="awV-GZD2r2zzS3tEyDBp-93" target="23" edge="1">
                    <mxGeometry relative="1" as="geometry"/>
                </mxCell>
                <mxCell id="39" style="edgeStyle=orthogonalEdgeStyle;rounded=0;orthogonalLoop=1;jettySize=auto;html=1;entryX=0;entryY=0.5;entryDx=0;entryDy=0;endArrow=none;endFill=0;" parent="1" source="awV-GZD2r2zzS3tEyDBp-93" target="15" edge="1">
                    <mxGeometry relative="1" as="geometry"/>
                </mxCell>
                <mxCell id="awV-GZD2r2zzS3tEyDBp-93" value="Enseignant" style="swimlane;fontStyle=0;childLayout=stackLayout;horizontal=1;startSize=26;horizontalStack=0;resizeParent=1;resizeParentMax=0;resizeLast=0;collapsible=1;marginBottom=0;swimlaneFillColor=none;align=center;fontSize=14;shadow=0;comic=0;fillColor=none;" parent="1" vertex="1">
                    <mxGeometry x="190" y="407" width="185" height="52" as="geometry"/>
                </mxCell>
                <mxCell id="awV-GZD2r2zzS3tEyDBp-104" value="0-N" style="text;html=1;align=center;verticalAlign=middle;resizable=0;points=[];autosize=1;" parent="1" vertex="1">
                    <mxGeometry x="1001" y="1146" width="30" height="20" as="geometry"/>
                </mxCell>
                <mxCell id="awV-GZD2r2zzS3tEyDBp-108" value="Etablir" style="swimlane;childLayout=stackLayout;horizontal=1;startSize=30;horizontalStack=0;fillColor=#008cff;fontColor=#FFFFFF;rounded=1;fontSize=14;fontStyle=0;strokeWidth=2;resizeParent=0;resizeLast=1;shadow=0;dashed=0;align=center;comic=0;arcSize=22;" parent="1" vertex="1">
                    <mxGeometry x="2068" y="1380" width="100" height="45" as="geometry"/>
                </mxCell>
                <mxCell id="yFiI01TJS1DYjCSwMzdh-50" style="edgeStyle=orthogonalEdgeStyle;rounded=0;orthogonalLoop=1;jettySize=auto;html=1;entryX=0;entryY=0.5;entryDx=0;entryDy=0;endArrow=none;endFill=0;" parent="1" source="awV-GZD2r2zzS3tEyDBp-112" target="awV-GZD2r2zzS3tEyDBp-116" edge="1">
                    <mxGeometry relative="1" as="geometry"/>
                </mxCell>
                <mxCell id="awV-GZD2r2zzS3tEyDBp-112" value="SpecialisationParaMedical" style="swimlane;fontStyle=0;childLayout=stackLayout;horizontal=1;startSize=26;horizontalStack=0;resizeParent=1;resizeParentMax=0;resizeLast=0;collapsible=1;marginBottom=0;swimlaneFillColor=none;align=center;fontSize=14;shadow=0;comic=0;fillColor=none;" parent="1" vertex="1">
                    <mxGeometry x="-56" y="1002" width="185" height="78" as="geometry"/>
                </mxCell>
                <mxCell id="awV-GZD2r2zzS3tEyDBp-113" value="Id" style="text;strokeColor=none;fillColor=none;spacingLeft=4;spacingRight=4;overflow=hidden;rotatable=0;points=[[0,0.5],[1,0.5]];portConstraint=eastwest;fontSize=12;" parent="awV-GZD2r2zzS3tEyDBp-112" vertex="1">
                    <mxGeometry y="26" width="185" height="26" as="geometry"/>
                </mxCell>
                <mxCell id="awV-GZD2r2zzS3tEyDBp-114" value="Intitule" style="text;strokeColor=none;fillColor=none;spacingLeft=4;spacingRight=4;overflow=hidden;rotatable=0;points=[[0,0.5],[1,0.5]];portConstraint=eastwest;fontSize=12;" parent="awV-GZD2r2zzS3tEyDBp-112" vertex="1">
                    <mxGeometry y="52" width="185" height="26" as="geometry"/>
                </mxCell>
                <mxCell id="awV-GZD2r2zzS3tEyDBp-116" value="Particulariser" style="swimlane;childLayout=stackLayout;horizontal=1;startSize=30;horizontalStack=0;fillColor=#008cff;fontColor=#FFFFFF;rounded=1;fontSize=14;fontStyle=0;strokeWidth=2;resizeParent=0;resizeLast=1;shadow=0;dashed=0;align=center;comic=0;arcSize=50;" parent="1" vertex="1">
                    <mxGeometry x="227.5" y="1018.5" width="110" height="45" as="geometry"/>
                </mxCell>
                <mxCell id="41" style="edgeStyle=orthogonalEdgeStyle;rounded=0;orthogonalLoop=1;jettySize=auto;html=1;entryX=0.5;entryY=0;entryDx=0;entryDy=0;endArrow=none;endFill=0;" parent="1" source="awV-GZD2r2zzS3tEyDBp-139" target="awV-GZD2r2zzS3tEyDBp-152" edge="1">
                    <mxGeometry relative="1" as="geometry"/>
                </mxCell>
                <mxCell id="awV-GZD2r2zzS3tEyDBp-139" value="Classe" style="swimlane;fontStyle=0;childLayout=stackLayout;horizontal=1;startSize=26;horizontalStack=0;resizeParent=1;resizeParentMax=0;resizeLast=0;collapsible=1;marginBottom=0;swimlaneFillColor=none;align=center;fontSize=14;shadow=0;comic=0;fillColor=none;" parent="1" vertex="1">
                    <mxGeometry x="580" y="728" width="125" height="104" as="geometry"/>
                </mxCell>
                <mxCell id="awV-GZD2r2zzS3tEyDBp-140" value="Id" style="text;strokeColor=none;fillColor=none;spacingLeft=4;spacingRight=4;overflow=hidden;rotatable=0;points=[[0,0.5],[1,0.5]];portConstraint=eastwest;fontSize=12;fontStyle=4" parent="awV-GZD2r2zzS3tEyDBp-139" vertex="1">
                    <mxGeometry y="26" width="125" height="26" as="geometry"/>
                </mxCell>
                <mxCell id="awV-GZD2r2zzS3tEyDBp-141" value="Nom" style="text;strokeColor=none;fillColor=none;spacingLeft=4;spacingRight=4;overflow=hidden;rotatable=0;points=[[0,0.5],[1,0.5]];portConstraint=eastwest;fontSize=12;" parent="awV-GZD2r2zzS3tEyDBp-139" vertex="1">
                    <mxGeometry y="52" width="125" height="26" as="geometry"/>
                </mxCell>
                <mxCell id="awV-GZD2r2zzS3tEyDBp-142" value="NbEleveMax" style="text;strokeColor=none;fillColor=none;spacingLeft=4;spacingRight=4;overflow=hidden;rotatable=0;points=[[0,0.5],[1,0.5]];portConstraint=eastwest;fontSize=12;" parent="awV-GZD2r2zzS3tEyDBp-139" vertex="1">
                    <mxGeometry y="78" width="125" height="26" as="geometry"/>
                </mxCell>
                <mxCell id="45" style="edgeStyle=orthogonalEdgeStyle;rounded=0;orthogonalLoop=1;jettySize=auto;html=1;entryX=1;entryY=0.5;entryDx=0;entryDy=0;endArrow=none;endFill=0;" parent="1" source="awV-GZD2r2zzS3tEyDBp-145" target="awV-GZD2r2zzS3tEyDBp-64" edge="1">
                    <mxGeometry relative="1" as="geometry"/>
                </mxCell>
                <mxCell id="awV-GZD2r2zzS3tEyDBp-145" value="Appartenir" style="swimlane;childLayout=stackLayout;horizontal=1;startSize=30;horizontalStack=0;fillColor=#008cff;fontColor=#FFFFFF;rounded=1;fontSize=14;fontStyle=0;strokeWidth=2;resizeParent=0;resizeLast=1;shadow=0;dashed=0;align=center;comic=0;arcSize=50;" parent="1" vertex="1">
                    <mxGeometry x="1589" y="410.5" width="100" height="45" as="geometry"/>
                </mxCell>
                <mxCell id="awV-GZD2r2zzS3tEyDBp-146" value="0-N" style="text;html=1;align=center;verticalAlign=middle;resizable=0;points=[];autosize=1;" parent="1" vertex="1">
                    <mxGeometry x="705" y="764.5" width="29" height="18" as="geometry"/>
                </mxCell>
                <mxCell id="awV-GZD2r2zzS3tEyDBp-147" value="1-1" style="text;html=1;align=center;verticalAlign=middle;resizable=0;points=[];autosize=1;" parent="1" vertex="1">
                    <mxGeometry x="1510" y="810" width="30" height="20" as="geometry"/>
                </mxCell>
                <mxCell id="43" style="edgeStyle=orthogonalEdgeStyle;rounded=0;orthogonalLoop=1;jettySize=auto;html=1;entryX=1;entryY=0.5;entryDx=0;entryDy=0;endArrow=none;endFill=0;" parent="1" source="awV-GZD2r2zzS3tEyDBp-152" target="awV-GZD2r2zzS3tEyDBp-30" edge="1">
                    <mxGeometry relative="1" as="geometry">
                        <Array as="points">
                            <mxPoint x="416" y="978"/>
                            <mxPoint x="416" y="869"/>
                        </Array>
                    </mxGeometry>
                </mxCell>
                <mxCell id="awV-GZD2r2zzS3tEyDBp-152" value="Etre Allouer" style="swimlane;childLayout=stackLayout;horizontal=1;startSize=30;horizontalStack=0;fillColor=#008cff;fontColor=#FFFFFF;rounded=1;fontSize=14;fontStyle=0;strokeWidth=2;resizeParent=0;resizeLast=1;shadow=0;dashed=0;align=center;comic=0;arcSize=50;" parent="1" vertex="1">
                    <mxGeometry x="583" y="930" width="119" height="91" as="geometry"/>
                </mxCell>
                <mxCell id="UkAMx5j0rpMIQZxr48Fk-11" value="DateDebut" style="text;strokeColor=none;fillColor=none;spacingLeft=4;spacingRight=4;overflow=hidden;rotatable=0;points=[[0,0.5],[1,0.5]];portConstraint=eastwest;fontSize=12;align=center;" parent="awV-GZD2r2zzS3tEyDBp-152" vertex="1">
                    <mxGeometry y="30" width="119" height="30" as="geometry"/>
                </mxCell>
                <mxCell id="UkAMx5j0rpMIQZxr48Fk-10" value="DateFin" style="text;strokeColor=none;fillColor=none;spacingLeft=4;spacingRight=4;overflow=hidden;rotatable=0;points=[[0,0.5],[1,0.5]];portConstraint=eastwest;fontSize=12;align=center;" parent="awV-GZD2r2zzS3tEyDBp-152" vertex="1">
                    <mxGeometry y="60" width="119" height="31" as="geometry"/>
                </mxCell>
                <mxCell id="awV-GZD2r2zzS3tEyDBp-164" value="1-1" style="text;html=1;align=center;verticalAlign=middle;resizable=0;points=[];autosize=1;" parent="1" vertex="1">
                    <mxGeometry x="1040" y="782.5" width="30" height="20" as="geometry"/>
                </mxCell>
                <mxCell id="awV-GZD2r2zzS3tEyDBp-170" value="1-N" style="text;html=1;align=center;verticalAlign=middle;resizable=0;points=[];autosize=1;" parent="1" vertex="1">
                    <mxGeometry x="1134" y="1173" width="30" height="20" as="geometry"/>
                </mxCell>
                <mxCell id="awV-GZD2r2zzS3tEyDBp-171" value="1-N" style="text;html=1;align=center;verticalAlign=middle;resizable=0;points=[];autosize=1;" parent="1" vertex="1">
                    <mxGeometry x="1397.5" y="610" width="30" height="20" as="geometry"/>
                </mxCell>
                <mxCell id="yFiI01TJS1DYjCSwMzdh-29" style="edgeStyle=orthogonalEdgeStyle;rounded=0;orthogonalLoop=1;jettySize=auto;html=1;entryX=0;entryY=1;entryDx=0;entryDy=0;entryPerimeter=0;endArrow=none;endFill=0;" parent="1" source="yFiI01TJS1DYjCSwMzdh-4" target="awV-GZD2r2zzS3tEyDBp-56" edge="1">
                    <mxGeometry relative="1" as="geometry">
                        <Array as="points">
                            <mxPoint x="-111" y="1199"/>
                        </Array>
                    </mxGeometry>
                </mxCell>
                <mxCell id="yFiI01TJS1DYjCSwMzdh-30" style="edgeStyle=orthogonalEdgeStyle;rounded=0;orthogonalLoop=1;jettySize=auto;html=1;entryX=0;entryY=0.5;entryDx=0;entryDy=0;endArrow=none;endFill=0;" parent="1" source="yFiI01TJS1DYjCSwMzdh-4" target="yFiI01TJS1DYjCSwMzdh-19" edge="1">
                    <mxGeometry relative="1" as="geometry"/>
                </mxCell>
                <mxCell id="yFiI01TJS1DYjCSwMzdh-57" style="edgeStyle=orthogonalEdgeStyle;rounded=0;orthogonalLoop=1;jettySize=auto;html=1;entryX=0.5;entryY=1;entryDx=0;entryDy=0;endArrow=none;endFill=0;" parent="1" source="yFiI01TJS1DYjCSwMzdh-4" target="yFiI01TJS1DYjCSwMzdh-52" edge="1">
                    <mxGeometry relative="1" as="geometry"/>
                </mxCell>
                <mxCell id="yFiI01TJS1DYjCSwMzdh-4" value="Direction" style="swimlane;fontStyle=0;childLayout=stackLayout;horizontal=1;startSize=26;horizontalStack=0;resizeParent=1;resizeParentMax=0;resizeLast=0;collapsible=1;marginBottom=0;swimlaneFillColor=none;align=center;fontSize=14;shadow=0;comic=0;fillColor=none;" parent="1" vertex="1">
                    <mxGeometry x="945" y="1173" width="185" height="52" as="geometry"/>
                </mxCell>
                <mxCell id="yFiI01TJS1DYjCSwMzdh-19" value="Inscrire" style="swimlane;childLayout=stackLayout;horizontal=1;startSize=30;horizontalStack=0;fillColor=#008cff;fontColor=#FFFFFF;rounded=1;fontSize=14;fontStyle=0;strokeWidth=2;resizeParent=0;resizeLast=1;shadow=0;dashed=0;align=center;comic=0;arcSize=50;" parent="1" vertex="1">
                    <mxGeometry x="1427.5" y="1149" width="150" height="100" as="geometry"/>
                </mxCell>
                <mxCell id="yFiI01TJS1DYjCSwMzdh-20" value="DateDebutInsciption" style="text;strokeColor=none;fillColor=none;spacingLeft=4;spacingRight=4;overflow=hidden;rotatable=0;points=[[0,0.5],[1,0.5]];portConstraint=eastwest;fontSize=12;align=center;" parent="yFiI01TJS1DYjCSwMzdh-19" vertex="1">
                    <mxGeometry y="30" width="150" height="30" as="geometry"/>
                </mxCell>
                <mxCell id="yFiI01TJS1DYjCSwMzdh-21" value="DateFinInscription" style="text;strokeColor=none;fillColor=none;spacingLeft=4;spacingRight=4;overflow=hidden;rotatable=0;points=[[0,0.5],[1,0.5]];portConstraint=eastwest;fontSize=12;align=center;" parent="yFiI01TJS1DYjCSwMzdh-19" vertex="1">
                    <mxGeometry y="60" width="150" height="40" as="geometry"/>
                </mxCell>
                <mxCell id="yFiI01TJS1DYjCSwMzdh-37" style="edgeStyle=orthogonalEdgeStyle;rounded=0;orthogonalLoop=1;jettySize=auto;html=1;entryX=0.5;entryY=1;entryDx=0;entryDy=0;entryPerimeter=0;endArrow=none;endFill=0;" parent="1" source="yFiI01TJS1DYjCSwMzdh-28" target="awV-GZD2r2zzS3tEyDBp-56" edge="1">
                    <mxGeometry relative="1" as="geometry"/>
                </mxCell>
                <mxCell id="yFiI01TJS1DYjCSwMzdh-28" value="EquipePluridisciplinaire" style="swimlane;fontStyle=0;childLayout=stackLayout;horizontal=1;startSize=26;horizontalStack=0;resizeParent=1;resizeParentMax=0;resizeLast=0;collapsible=1;marginBottom=0;swimlaneFillColor=none;align=center;fontSize=14;shadow=0;comic=0;fillColor=none;" parent="1" vertex="1">
                    <mxGeometry x="-86" y="644.5" width="185" height="52" as="geometry"/>
                </mxCell>
                <mxCell id="yFiI01TJS1DYjCSwMzdh-35" style="edgeStyle=orthogonalEdgeStyle;rounded=0;orthogonalLoop=1;jettySize=auto;html=1;entryX=0;entryY=0.5;entryDx=0;entryDy=0;endArrow=none;endFill=0;exitX=0;exitY=1;exitDx=0;exitDy=0;exitPerimeter=0;" parent="1" source="yFiI01TJS1DYjCSwMzdh-32" target="awV-GZD2r2zzS3tEyDBp-30" edge="1">
                    <mxGeometry relative="1" as="geometry"/>
                </mxCell>
                <mxCell id="yFiI01TJS1DYjCSwMzdh-36" style="edgeStyle=orthogonalEdgeStyle;rounded=0;orthogonalLoop=1;jettySize=auto;html=1;entryX=1;entryY=0.5;entryDx=0;entryDy=0;endArrow=none;endFill=0;" parent="1" source="yFiI01TJS1DYjCSwMzdh-32" edge="1">
                    <mxGeometry relative="1" as="geometry">
                        <mxPoint x="86" y="670.5" as="targetPoint"/>
                    </mxGeometry>
                </mxCell>
                <mxCell id="yFiI01TJS1DYjCSwMzdh-32" value="" style="verticalLabelPosition=bottom;verticalAlign=top;html=1;shape=mxgraph.basic.acute_triangle;dx=0.5;rotation=-90;" parent="1" vertex="1">
                    <mxGeometry x="110" y="651.25" width="40" height="38.5" as="geometry"/>
                </mxCell>
                <mxCell id="yFiI01TJS1DYjCSwMzdh-42" style="edgeStyle=orthogonalEdgeStyle;rounded=0;orthogonalLoop=1;jettySize=auto;html=1;entryX=1;entryY=0.5;entryDx=0;entryDy=0;endArrow=none;endFill=0;" parent="1" target="awV-GZD2r2zzS3tEyDBp-93" edge="1">
                    <mxGeometry relative="1" as="geometry">
                        <mxPoint x="384.75" y="433.0491071428569" as="sourcePoint"/>
                    </mxGeometry>
                </mxCell>
                <mxCell id="yFiI01TJS1DYjCSwMzdh-52" value="Etablir" style="swimlane;childLayout=stackLayout;horizontal=1;startSize=30;horizontalStack=0;fillColor=#008cff;fontColor=#FFFFFF;rounded=1;fontSize=14;fontStyle=0;strokeWidth=2;resizeParent=0;resizeLast=1;shadow=0;dashed=0;align=center;comic=0;arcSize=50;" parent="1" vertex="1">
                    <mxGeometry x="976.8700000000001" y="930" width="121.25" height="45" as="geometry"/>
                </mxCell>
                <mxCell id="yFiI01TJS1DYjCSwMzdh-58" value="Etre attribuer" style="swimlane;childLayout=stackLayout;horizontal=1;startSize=30;horizontalStack=0;fillColor=#008cff;fontColor=#FFFFFF;rounded=1;fontSize=14;fontStyle=0;strokeWidth=2;resizeParent=0;resizeLast=1;shadow=0;dashed=0;align=center;comic=0;arcSize=50;" parent="1" vertex="1">
                    <mxGeometry x="1220" y="611.75" width="121.25" height="45" as="geometry"/>
                </mxCell>
                <mxCell id="yFiI01TJS1DYjCSwMzdh-62" style="edgeStyle=orthogonalEdgeStyle;rounded=0;orthogonalLoop=1;jettySize=auto;html=1;entryX=0;entryY=0.5;entryDx=0;entryDy=0;endArrow=none;endFill=0;" parent="1" target="yFiI01TJS1DYjCSwMzdh-58" edge="1">
                    <mxGeometry relative="1" as="geometry">
                        <mxPoint x="1100.87" y="634.5" as="sourcePoint"/>
                    </mxGeometry>
                </mxCell>
                <mxCell id="yFiI01TJS1DYjCSwMzdh-63" style="edgeStyle=orthogonalEdgeStyle;rounded=0;orthogonalLoop=1;jettySize=auto;html=1;entryX=1;entryY=0.5;entryDx=0;entryDy=0;endArrow=none;endFill=0;" parent="1" source="awV-GZD2r2zzS3tEyDBp-62" target="yFiI01TJS1DYjCSwMzdh-58" edge="1">
                    <mxGeometry relative="1" as="geometry"/>
                </mxCell>
                <mxCell id="yFiI01TJS1DYjCSwMzdh-69" style="edgeStyle=orthogonalEdgeStyle;rounded=0;orthogonalLoop=1;jettySize=auto;html=1;entryX=0;entryY=0.5;entryDx=0;entryDy=0;endArrow=none;endFill=0;" parent="1" source="yFiI01TJS1DYjCSwMzdh-64" edge="1">
                    <mxGeometry relative="1" as="geometry">
                        <mxPoint x="975.8699999999999" y="634.5" as="targetPoint"/>
                    </mxGeometry>
                </mxCell>
                <mxCell id="yFiI01TJS1DYjCSwMzdh-64" value="Etablir" style="swimlane;childLayout=stackLayout;horizontal=1;startSize=30;horizontalStack=0;fillColor=#008cff;fontColor=#FFFFFF;rounded=1;fontSize=14;fontStyle=0;strokeWidth=2;resizeParent=0;resizeLast=1;shadow=0;dashed=0;align=center;comic=0;arcSize=50;" parent="1" vertex="1">
                    <mxGeometry x="760.0000000000001" y="612.5" width="121.25" height="45" as="geometry"/>
                </mxCell>
                <mxCell id="yFiI01TJS1DYjCSwMzdh-70" value="0-N" style="text;html=1;align=center;verticalAlign=middle;resizable=0;points=[];autosize=1;" parent="1" vertex="1">
                    <mxGeometry x="292" y="387" width="30" height="20" as="geometry"/>
                </mxCell>
                <mxCell id="yFiI01TJS1DYjCSwMzdh-71" value="0-N" style="text;html=1;align=center;verticalAlign=middle;resizable=0;points=[];autosize=1;" parent="1" vertex="1">
                    <mxGeometry x="1042" y="200" width="30" height="20" as="geometry"/>
                </mxCell>
                <mxCell id="yFiI01TJS1DYjCSwMzdh-72" value="1-1" style="text;html=1;align=center;verticalAlign=middle;resizable=0;points=[];autosize=1;" parent="1" vertex="1">
                    <mxGeometry x="1004" y="493" width="30" height="20" as="geometry"/>
                </mxCell>
                <mxCell id="yFiI01TJS1DYjCSwMzdh-73" value="1-1" style="text;html=1;align=center;verticalAlign=middle;resizable=0;points=[];autosize=1;" parent="1" vertex="1">
                    <mxGeometry x="940" y="610" width="30" height="20" as="geometry"/>
                </mxCell>
                <mxCell id="yFiI01TJS1DYjCSwMzdh-77" value="1-N" style="text;html=1;align=center;verticalAlign=middle;resizable=0;points=[];autosize=1;" parent="1" vertex="1">
                    <mxGeometry x="129" y="1020" width="30" height="20" as="geometry"/>
                </mxCell>
                <mxCell id="yFiI01TJS1DYjCSwMzdh-78" value="1-1" style="text;html=1;align=center;verticalAlign=middle;resizable=0;points=[];autosize=1;" parent="1" vertex="1">
                    <mxGeometry x="290" y="900" width="30" height="20" as="geometry"/>
                </mxCell>
                <mxCell id="10" value="1-1" style="text;html=1;align=center;verticalAlign=middle;resizable=0;points=[];autosize=1;" parent="1" vertex="1">
                    <mxGeometry x="1575" y="661.5" width="27" height="18" as="geometry"/>
                </mxCell>
                <mxCell id="13" value="1-N" style="text;html=1;align=center;verticalAlign=middle;resizable=0;points=[];autosize=1;" parent="1" vertex="1">
                    <mxGeometry x="380" y="843.25" width="30" height="20" as="geometry"/>
                </mxCell>
                <mxCell id="14" value="1-N" style="text;html=1;align=center;verticalAlign=middle;resizable=0;points=[];autosize=1;" parent="1" vertex="1">
                    <mxGeometry x="645" y="839" width="30" height="20" as="geometry"/>
                </mxCell>
                <mxCell id="18" style="edgeStyle=orthogonalEdgeStyle;rounded=0;orthogonalLoop=1;jettySize=auto;html=1;entryX=0.25;entryY=0;entryDx=0;entryDy=0;endArrow=none;endFill=0;" parent="1" source="15" target="awV-GZD2r2zzS3tEyDBp-139" edge="1">
                    <mxGeometry relative="1" as="geometry"/>
                </mxCell>
                <mxCell id="15" value="Titulariser" style="swimlane;childLayout=stackLayout;horizontal=1;startSize=30;horizontalStack=0;fillColor=#008cff;fontColor=#FFFFFF;rounded=1;fontSize=14;fontStyle=0;strokeWidth=2;resizeParent=0;resizeLast=1;shadow=0;dashed=0;align=center;comic=0;arcSize=50;" parent="1" vertex="1">
                    <mxGeometry x="466" y="501" width="119" height="58" as="geometry"/>
                </mxCell>
                <mxCell id="21" value="1-1" style="text;html=1;align=center;verticalAlign=middle;resizable=0;points=[];autosize=1;" parent="1" vertex="1">
                    <mxGeometry x="585" y="706" width="27" height="18" as="geometry"/>
                </mxCell>
                <mxCell id="26" style="edgeStyle=orthogonalEdgeStyle;rounded=0;orthogonalLoop=1;jettySize=auto;html=1;entryX=0;entryY=0.5;entryDx=0;entryDy=0;endArrow=none;endFill=0;exitX=1;exitY=0.5;exitDx=0;exitDy=0;" parent="1" source="24" target="awV-GZD2r2zzS3tEyDBp-141" edge="1">
                    <mxGeometry relative="1" as="geometry"/>
                </mxCell>
                <mxCell id="23" value="Enseigner" style="swimlane;childLayout=stackLayout;horizontal=1;startSize=30;horizontalStack=0;fillColor=#008cff;fontColor=#FFFFFF;rounded=1;fontSize=14;fontStyle=0;strokeWidth=2;resizeParent=0;resizeLast=1;shadow=0;dashed=0;align=center;comic=0;arcSize=50;" parent="1" vertex="1">
                    <mxGeometry x="269" y="640" width="119" height="91" as="geometry"/>
                </mxCell>
                <mxCell id="24" value="DateDebut" style="text;strokeColor=none;fillColor=none;spacingLeft=4;spacingRight=4;overflow=hidden;rotatable=0;points=[[0,0.5],[1,0.5]];portConstraint=eastwest;fontSize=12;align=center;" parent="23" vertex="1">
                    <mxGeometry y="30" width="119" height="30" as="geometry"/>
                </mxCell>
                <mxCell id="25" value="DateFin" style="text;strokeColor=none;fillColor=none;spacingLeft=4;spacingRight=4;overflow=hidden;rotatable=0;points=[[0,0.5],[1,0.5]];portConstraint=eastwest;fontSize=12;align=center;" parent="23" vertex="1">
                    <mxGeometry y="60" width="119" height="31" as="geometry"/>
                </mxCell>
                <mxCell id="29" value="1-N" style="text;html=1;align=center;verticalAlign=middle;resizable=0;points=[];autosize=1;" parent="1" vertex="1">
                    <mxGeometry x="545" y="800" width="30" height="20" as="geometry"/>
                </mxCell>
                <mxCell id="32" value="1-N" style="text;html=1;align=center;verticalAlign=middle;resizable=0;points=[];autosize=1;" parent="1" vertex="1">
                    <mxGeometry x="329" y="462" width="30" height="20" as="geometry"/>
                </mxCell>
                <mxCell id="33" value="0-1" style="text;html=1;align=center;verticalAlign=middle;resizable=0;points=[];autosize=1;" parent="1" vertex="1">
                    <mxGeometry x="375" y="411" width="27" height="18" as="geometry"/>
                </mxCell>
                <mxCell id="35" value="&lt;b&gt;&lt;i&gt;Seul l'enseignant titulaire de la classe peut etablir un traitement auprès d'un élève&lt;/i&gt;&lt;/b&gt;" style="text;html=1;strokeColor=none;fillColor=none;align=center;verticalAlign=middle;whiteSpace=wrap;rounded=0;" parent="1" vertex="1">
                    <mxGeometry x="438" y="393.5" width="207" height="53" as="geometry"/>
                </mxCell>
                <mxCell id="44" style="edgeStyle=orthogonalEdgeStyle;rounded=0;orthogonalLoop=1;jettySize=auto;html=1;entryX=0;entryY=0.5;entryDx=0;entryDy=0;endArrow=none;endFill=0;exitX=1;exitY=0.5;exitDx=0;exitDy=0;" parent="1" source="awV-GZD2r2zzS3tEyDBp-141" target="awV-GZD2r2zzS3tEyDBp-145" edge="1">
                    <mxGeometry relative="1" as="geometry">
                        <Array as="points">
                            <mxPoint x="739" y="791"/>
                            <mxPoint x="739" y="433"/>
                        </Array>
                    </mxGeometry>
                </mxCell>
                <mxCell id="68" style="edgeStyle=orthogonalEdgeStyle;rounded=0;orthogonalLoop=1;jettySize=auto;html=1;entryX=0.5;entryY=0;entryDx=0;entryDy=0;endArrow=none;endFill=0;" parent="1" source="46" target="47" edge="1">
                    <mxGeometry relative="1" as="geometry"/>
                </mxCell>
                <mxCell id="73" style="edgeStyle=orthogonalEdgeStyle;rounded=0;orthogonalLoop=1;jettySize=auto;html=1;entryX=0.5;entryY=1;entryDx=0;entryDy=0;endArrow=none;endFill=0;" parent="1" source="46" target="64" edge="1">
                    <mxGeometry relative="1" as="geometry">
                        <Array as="points">
                            <mxPoint x="-100" y="419"/>
                            <mxPoint x="-100" y="360"/>
                            <mxPoint x="-42" y="360"/>
                        </Array>
                    </mxGeometry>
                </mxCell>
                <mxCell id="79" style="edgeStyle=orthogonalEdgeStyle;rounded=0;orthogonalLoop=1;jettySize=auto;html=1;entryX=0;entryY=0.5;entryDx=0;entryDy=0;endArrow=none;endFill=0;exitX=0.75;exitY=0;exitDx=0;exitDy=0;" parent="1" source="46" target="77" edge="1">
                    <mxGeometry relative="1" as="geometry"/>
                </mxCell>
                <mxCell id="46" value="ReunionEquipe" style="swimlane;fontStyle=0;childLayout=stackLayout;horizontal=1;startSize=26;horizontalStack=0;resizeParent=1;resizeParentMax=0;resizeLast=0;collapsible=1;marginBottom=0;swimlaneFillColor=none;align=center;fontSize=14;shadow=0;comic=0;fillColor=none;" parent="1" vertex="1">
                    <mxGeometry x="-72" y="379.5" width="185" height="78" as="geometry"/>
                </mxCell>
                <mxCell id="55" value="Id" style="text;strokeColor=none;fillColor=none;spacingLeft=4;spacingRight=4;overflow=hidden;rotatable=0;points=[[0,0.5],[1,0.5]];portConstraint=eastwest;fontSize=12;fontStyle=4" parent="46" vertex="1">
                    <mxGeometry y="26" width="185" height="26" as="geometry"/>
                </mxCell>
                <mxCell id="54" value="TargetFile" style="text;strokeColor=none;fillColor=none;spacingLeft=4;spacingRight=4;overflow=hidden;rotatable=0;points=[[0,0.5],[1,0.5]];portConstraint=eastwest;fontSize=12;fontStyle=4" parent="46" vertex="1">
                    <mxGeometry y="52" width="185" height="26" as="geometry"/>
                </mxCell>
                <mxCell id="51" style="edgeStyle=orthogonalEdgeStyle;rounded=0;orthogonalLoop=1;jettySize=auto;html=1;entryX=0.25;entryY=1;entryDx=0;entryDy=0;endArrow=none;endFill=0;" parent="1" source="47" target="awV-GZD2r2zzS3tEyDBp-93" edge="1">
                    <mxGeometry relative="1" as="geometry"/>
                </mxCell>
                <mxCell id="47" value="Participer" style="swimlane;childLayout=stackLayout;horizontal=1;startSize=30;horizontalStack=0;fillColor=#008cff;fontColor=#FFFFFF;rounded=1;fontSize=14;fontStyle=0;strokeWidth=2;resizeParent=0;resizeLast=1;shadow=0;dashed=0;align=center;comic=0;arcSize=50;" parent="1" vertex="1">
                    <mxGeometry x="-39" y="517.5" width="119" height="55" as="geometry"/>
                </mxCell>
                <mxCell id="48" value="Date" style="text;strokeColor=none;fillColor=none;spacingLeft=4;spacingRight=4;overflow=hidden;rotatable=0;points=[[0,0.5],[1,0.5]];portConstraint=eastwest;fontSize=12;align=center;" parent="47" vertex="1">
                    <mxGeometry y="30" width="119" height="25" as="geometry"/>
                </mxCell>
                <mxCell id="52" value="0-N" style="text;html=1;align=center;verticalAlign=middle;resizable=0;points=[];autosize=1;" parent="1" vertex="1">
                    <mxGeometry x="200" y="466" width="30" height="20" as="geometry"/>
                </mxCell>
                <mxCell id="75" style="edgeStyle=orthogonalEdgeStyle;rounded=0;orthogonalLoop=1;jettySize=auto;html=1;entryX=0.5;entryY=0;entryDx=0;entryDy=0;endArrow=none;endFill=0;" parent="1" source="60" target="64" edge="1">
                    <mxGeometry relative="1" as="geometry"/>
                </mxCell>
                <mxCell id="60" value="Sujets" style="swimlane;fontStyle=0;childLayout=stackLayout;horizontal=1;startSize=26;horizontalStack=0;resizeParent=1;resizeParentMax=0;resizeLast=0;collapsible=1;marginBottom=0;swimlaneFillColor=none;align=center;fontSize=14;shadow=0;comic=0;fillColor=none;" parent="1" vertex="1">
                    <mxGeometry x="-102" y="173" width="185" height="78" as="geometry"/>
                </mxCell>
                <mxCell id="61" value="Id" style="text;strokeColor=none;fillColor=none;spacingLeft=4;spacingRight=4;overflow=hidden;rotatable=0;points=[[0,0.5],[1,0.5]];portConstraint=eastwest;fontSize=12;fontStyle=4" parent="60" vertex="1">
                    <mxGeometry y="26" width="185" height="26" as="geometry"/>
                </mxCell>
                <mxCell id="62" value="DateEcheance" style="text;strokeColor=none;fillColor=none;spacingLeft=4;spacingRight=4;overflow=hidden;rotatable=0;points=[[0,0.5],[1,0.5]];portConstraint=eastwest;fontSize=12;fontStyle=4" parent="60" vertex="1">
                    <mxGeometry y="52" width="185" height="26" as="geometry"/>
                </mxCell>
                <mxCell id="64" value="Aborder" style="swimlane;childLayout=stackLayout;horizontal=1;startSize=30;horizontalStack=0;fillColor=#008cff;fontColor=#FFFFFF;rounded=1;fontSize=14;fontStyle=0;strokeWidth=2;resizeParent=0;resizeLast=1;shadow=0;dashed=0;align=center;comic=0;arcSize=50;" parent="1" vertex="1">
                    <mxGeometry x="-102" y="290" width="119" height="58" as="geometry"/>
                </mxCell>
                <mxCell id="67" value="1-N" style="text;html=1;align=center;verticalAlign=middle;resizable=0;points=[];autosize=1;" parent="1" vertex="1">
                    <mxGeometry x="21.5" y="457.5" width="30" height="20" as="geometry"/>
                </mxCell>
                <mxCell id="69" value="1-N" style="text;html=1;align=center;verticalAlign=middle;resizable=0;points=[];autosize=1;" parent="1" vertex="1">
                    <mxGeometry x="-102" y="395" width="30" height="20" as="geometry"/>
                </mxCell>
                <mxCell id="70" value="1-N" style="text;html=1;align=center;verticalAlign=middle;resizable=0;points=[];autosize=1;" parent="1" vertex="1">
                    <mxGeometry x="-42" y="251" width="30" height="20" as="geometry"/>
                </mxCell>
                <mxCell id="78" style="edgeStyle=orthogonalEdgeStyle;rounded=0;orthogonalLoop=1;jettySize=auto;html=1;entryX=0.75;entryY=0;entryDx=0;entryDy=0;endArrow=none;endFill=0;" parent="1" source="77" target="awV-GZD2r2zzS3tEyDBp-139" edge="1">
                    <mxGeometry relative="1" as="geometry"/>
                </mxCell>
                <mxCell id="77" value="Etre en relation" style="swimlane;childLayout=stackLayout;horizontal=1;startSize=30;horizontalStack=0;fillColor=#008cff;fontColor=#FFFFFF;rounded=1;fontSize=14;fontStyle=0;strokeWidth=2;resizeParent=0;resizeLast=1;shadow=0;dashed=0;align=center;comic=0;arcSize=50;" parent="1" vertex="1">
                    <mxGeometry x="615" y="280" width="119" height="58" as="geometry"/>
                </mxCell>
                <mxCell id="80" value="1-1" style="text;html=1;align=center;verticalAlign=middle;resizable=0;points=[];autosize=1;" parent="1" vertex="1">
                    <mxGeometry x="68" y="358" width="27" height="18" as="geometry"/>
                </mxCell>
                <mxCell id="81" value="1-N" style="text;html=1;align=center;verticalAlign=middle;resizable=0;points=[];autosize=1;" parent="1" vertex="1">
                    <mxGeometry x="675" y="705" width="30" height="20" as="geometry"/>
                </mxCell>
                <mxCell id="82" value="&lt;b&gt;&lt;i&gt;Les enseignants qui participent à la réunion devront etre liés à la classe qui est en relation avec la réunion d'équipe&lt;/i&gt;&lt;/b&gt;" style="text;html=1;strokeColor=none;fillColor=none;align=center;verticalAlign=middle;whiteSpace=wrap;rounded=0;" parent="1" vertex="1">
                    <mxGeometry x="-83" y="568.5" width="207" height="76" as="geometry"/>
                </mxCell>
                <mxCell id="90" style="edgeStyle=orthogonalEdgeStyle;rounded=0;orthogonalLoop=1;jettySize=auto;html=1;entryX=0.5;entryY=1;entryDx=0;entryDy=0;endArrow=none;endFill=0;" parent="1" source="84" target="87" edge="1">
                    <mxGeometry relative="1" as="geometry"/>
                </mxCell>
                <mxCell id="84" value="Specialisation" style="swimlane;fontStyle=0;childLayout=stackLayout;horizontal=1;startSize=26;horizontalStack=0;resizeParent=1;resizeParentMax=0;resizeLast=0;collapsible=1;marginBottom=0;swimlaneFillColor=none;align=center;fontSize=14;shadow=0;comic=0;fillColor=none;" parent="1" vertex="1">
                    <mxGeometry x="-385" y="1073" width="185" height="78" as="geometry"/>
                </mxCell>
                <mxCell id="85" value="Id" style="text;strokeColor=none;fillColor=none;spacingLeft=4;spacingRight=4;overflow=hidden;rotatable=0;points=[[0,0.5],[1,0.5]];portConstraint=eastwest;fontSize=12;" parent="84" vertex="1">
                    <mxGeometry y="26" width="185" height="26" as="geometry"/>
                </mxCell>
                <mxCell id="86" value="Intitule" style="text;strokeColor=none;fillColor=none;spacingLeft=4;spacingRight=4;overflow=hidden;rotatable=0;points=[[0,0.5],[1,0.5]];portConstraint=eastwest;fontSize=12;" parent="84" vertex="1">
                    <mxGeometry y="52" width="185" height="26" as="geometry"/>
                </mxCell>
                <mxCell id="87" value="Caracteriser" style="swimlane;childLayout=stackLayout;horizontal=1;startSize=30;horizontalStack=0;fillColor=#008cff;fontColor=#FFFFFF;rounded=1;fontSize=14;fontStyle=0;strokeWidth=2;resizeParent=0;resizeLast=1;shadow=0;dashed=0;align=center;comic=0;arcSize=50;" parent="1" vertex="1">
                    <mxGeometry x="-347.5" y="960" width="110" height="45" as="geometry"/>
                </mxCell>
                <mxCell id="91" value="1-N" style="text;html=1;align=center;verticalAlign=middle;resizable=0;points=[];autosize=1;" parent="1" vertex="1">
                    <mxGeometry x="-329" y="1050" width="30" height="20" as="geometry"/>
                </mxCell>
                <mxCell id="92" value="1-1" style="text;html=1;align=center;verticalAlign=middle;resizable=0;points=[];autosize=1;" parent="1" vertex="1">
                    <mxGeometry x="-290" y="891.5" width="30" height="20" as="geometry"/>
                </mxCell>
            </root>
        </mxGraphModel>
    </diagram>
</mxfile>